Anton-Regular.ufo
<glyph name="asterisk" format="1">
  <advance width="926"/>
  <unicode hex="002A"/>
  <outline>
    <contour>
      <point x="347" y="741" type="line"/>
      <point x="579" y="741" type="line"/>
      <point x="543" y="1036" type="line"/>
      <point x="774" y="854" type="line"/>
      <point x="890" y="1054" type="line"/>
      <point x="615" y="1171" type="line"/>
      <point x="890" y="1280" type="line"/>
      <point x="774" y="1480" type="line"/>
      <point x="544" y="1307" type="line"/>
      <point x="579" y="1593" type="line"/>
      <point x="347" y="1593" type="line"/>
      <point x="390" y="1301" type="line"/>
      <point x="152" y="1480" type="line"/>
      <point x="36" y="1280" type="line"/>
      <point x="310" y="1171" type="line"/>
      <point x="36" y="1054" type="line"/>
      <point x="152" y="854" type="line"/>
      <point x="391" y="1043" type="line"/>
    </contour>
  </outline>
</glyph>
<glyph name="comma" format="1">
  <advance width="484"/>
  <unicode hex="002C"/>
  <outline>
    <contour>
      <point x="116" y="-235" type="line"/>
      <point x="327" y="-235" type="line"/>
      <point x="429" y="10" type="line"/>
      <point x="429" y="299" type="line"/>
      <point x="55" y="299" type="line"/>
      <point x="55" y="1" type="line"/>
      <point x="182" y="1" type="line"/>
    </contour>
    <contour>
      <point x="247" y="131" type="move" name="_mid"/>
    </contour>
  </outline>
</glyph>
<glyph name="period" format="1">
  <advance width="468"/>
  <unicode hex="002E"/>
  <outline>
    <contour>
      <point x="55" y="1" type="line"/>
      <point x="413" y="1" type="line"/>
      <point x="413" y="299" type="line"/>
      <point x="55" y="299" type="line"/>
    </contour>
  </outline>
</glyph>
<glyph name="colon" format="1">
  <advance width="495"/>
  <unicode hex="003A"/>
  <outline>
    <contour>
      <point x="68" y="237" type="line"/>
      <point x="426" y="237" type="line"/>
      <point x="426" y="535" type="line"/>
      <point x="68" y="535" type="line"/>
    </contour>
    <contour>
      <point x="68" y="976" type="line"/>
      <point x="426" y="976" type="line"/>
      <point x="426" y="1274" type="line"/>
      <point x="68" y="1274" type="line"/>
    </contour>
  </outline>
</glyph>
<glyph name="V" format="1">
  <advance width="961"/>
  <unicode hex="0056"/>
  <outline>
    <contour>
      <point x="240" y="0" type="line"/>
      <point x="720" y="0" type="line"/>
      <point x="937" y="1761" type="line"/>
      <point x="602" y="1761" type="line"/>
      <point x="487" y="563" type="line"/>
      <point x="358" y="1761" type="line"/>
      <point x="23" y="1761" type="line"/>
    </contour>
  </outline>
</glyph>
<glyph name="bracketleft" format="1">
  <advance width="651"/>
  <unicode hex="005B"/>
  <outline>
    <contour>
      <point x="62" y="0" type="line"/>
      <point x="616" y="0" type="line"/>
      <point x="616" y="281" type="line"/>
      <point x="414" y="281" type="line"/>
      <point x="414" y="1480" type="line"/>
      <point x="616" y="1480" type="line"/>
      <point x="616" y="1761" type="line"/>
      <point x="62" y="1761" type="line"/>
    </contour>
  </outline>
</glyph>
<glyph name="underscore" format="1">
  <advance width="748"/>
  <unicode hex="005F"/>
  <outline>
    <contour>
      <point x="49" y="-362" type="line"/>
      <point x="700" y="-362" type="line"/>
      <point x="700" y="-130" type="line"/>
      <point x="49" y="-130" type="line"/>
    </contour>
  </outline>
</glyph>
<glyph name="k" format="1">
  <advance width="1005"/>
  <unicode hex="006B"/>
  <outline>
    <contour>
      <point x="72" y="0" type="line"/>
      <point x="426" y="0" type="line"/>
      <point x="426" y="707" type="line"/>
      <point x="649" y="0" type="line"/>
      <point x="1030" y="0" type="line"/>
      <point x="744" y="848" type="line"/>
      <point x="969" y="1500" type="line"/>
      <point x="598" y="1500" type="line"/>
      <point x="426" y="983" type="line"/>
      <point x="426" y="1769" type="line"/>
      <point x="72" y="1769" type="line"/>
    </contour>
    <contour>
      <point x="537" y="0" type="move" name="bot"/>
    </contour>
    <contour>
      <point x="763" y="1608" type="move" name="top"/>
    </contour>
  </outline>
</glyph>
<glyph name="n" format="1">
  <advance width="1021"/>
  <unicode hex="006E"/>
  <outline>
    <contour>
      <point x="72" y="0" type="line"/>
      <point x="430" y="0" type="line"/>
      <point x="430" y="1055" type="line" smooth="yes"/>
      <point x="430" y="1138"/>
      <point x="437" y="1239"/>
      <point x="520" y="1239" type="curve" smooth="yes"/>
      <point x="578" y="1239"/>
      <point x="600" y="1179"/>
      <point x="600" y="1120" type="curve" smooth="yes"/>
      <point x="600" y="0" type="line"/>
      <point x="953" y="0" type="line"/>
      <point x="953" y="1157" type="line" smooth="yes"/>
      <point x="953" y="1379"/>
      <point x="864" y="1516"/>
      <point x="656" y="1516" type="curve" smooth="yes"/>
      <point x="527" y="1516"/>
      <point x="456" y="1423"/>
      <point x="430" y="1309" type="curve"/>
      <point x="430" y="1500" type="line"/>
      <point x="72" y="1500" type="line"/>
    </contour>
    <contour>
      <point x="517" y="0" type="move" name="bot"/>
    </contour>
    <contour>
      <point x="513" y="1500" type="move" name="top"/>
    </contour>
  </outline>
</glyph>
<glyph name="v" format="1">
  <advance width="944"/>
  <unicode hex="0076"/>
  <outline>
    <contour>
      <point x="263" y="0" type="line"/>
      <point x="677" y="0" type="line"/>
      <point x="922" y="1500" type="line"/>
      <point x="564" y="1500" type="line"/>
      <point x="481" y="743" type="line"/>
      <point x="467" y="498" type="line"/>
      <point x="455" y="741" type="line"/>
      <point x="381" y="1500" type="line"/>
      <point x="22" y="1500" type="line"/>
    </contour>
  </outline>
</glyph>
<glyph name="ordfeminine" format="1">
  <advance width="803"/>
  <unicode hex="00AA"/>
  <outline>
    <contour>
      <point x="286" y="779" type="curve" smooth="yes"/>
      <point x="368" y="779"/>
      <point x="446" y="851"/>
      <point x="463" y="917" type="curve"/>
      <point x="463" y="793" type="line"/>
      <point x="745" y="793" type="line"/>
      <point x="745" y="1700" type="line" smooth="yes"/>
      <point x="745" y="1891"/>
      <point x="606" y="1997"/>
      <point x="419" y="1997" type="curve" smooth="yes"/>
      <point x="412" y="1997" type="line" smooth="yes"/>
      <point x="169" y="1997"/>
      <point x="62" y="1906"/>
      <point x="62" y="1670" type="curve" smooth="yes"/>
      <point x="62" y="1653"/>
      <point x="62" y="1640"/>
      <point x="63" y="1631" type="curve"/>
      <point x="339" y="1631" type="line"/>
      <point x="339" y="1711" type="line" smooth="yes"/>
      <point x="339" y="1754"/>
      <point x="359" y="1776"/>
      <point x="398" y="1776" type="curve" smooth="yes"/>
      <point x="474" y="1776"/>
      <point x="459" y="1649"/>
      <point x="459" y="1573" type="curve" smooth="yes"/>
      <point x="459" y="1571" type="line"/>
      <point x="193" y="1480"/>
      <point x="44" y="1458"/>
      <point x="44" y="1134" type="curve" smooth="yes"/>
      <point x="44" y="931"/>
      <point x="88" y="779"/>
    </contour>
    <contour>
      <point x="398" y="1001" type="curve" smooth="yes"/>
      <point x="355" y="1001"/>
      <point x="334" y="1036"/>
      <point x="334" y="1106" type="curve" smooth="yes"/>
      <point x="334" y="1245" type="line" smooth="yes"/>
      <point x="334" y="1338"/>
      <point x="379" y="1376"/>
      <point x="458" y="1407" type="curve"/>
      <point x="458" y="1094" type="line" smooth="yes"/>
      <point x="458" y="1049"/>
      <point x="444" y="1001"/>
    </contour>
  </outline>
</glyph>
<glyph name="guillemotleft" format="1">
  <advance width="1184"/>
  <unicode hex="00AB"/>
  <outline>
    <contour>
      <point x="548" y="260" type="line"/>
      <point x="548" y="618" type="line"/>
      <point x="236" y="749" type="line"/>
      <point x="548" y="871" type="line"/>
      <point x="548" y="1230" type="line"/>
      <point x="38" y="959" type="line"/>
      <point x="38" y="545" type="line"/>
    </contour>
    <contour>
      <point x="1126" y="260" type="line"/>
      <point x="1126" y="618" type="line"/>
      <point x="814" y="749" type="line"/>
      <point x="1126" y="871" type="line"/>
      <point x="1126" y="1230" type="line"/>
      <point x="616" y="959" type="line"/>
      <point x="616" y="545" type="line"/>
    </contour>
  </outline>
</glyph>
<glyph name="dotlessi" format="1">
  <advance width="482"/>
  <unicode hex="0131"/>
  <outline>
    <contour>
      <point x="62" y="0" type="line"/>
      <point x="420" y="0" type="line"/>
      <point x="420" y="1500" type="line"/>
      <point x="62" y="1500" type="line"/>
    </contour>
    <contour>
      <point x="260" y="0" type="move" name="ogonek"/>
    </contour>
    <contour>
      <point x="247" y="1500" type="move" name="top"/>
    </contour>
  </outline>
</glyph>
<glyph name="florin" format="1">
  <advance width="620"/>
  <unicode hex="0192"/>
  <outline>
    <contour>
      <point x="245" y="-47" type="curve" smooth="yes"/>
      <point x="406" y="-47"/>
      <point x="487" y="34"/>
      <point x="487" y="195" type="curve" smooth="yes"/>
      <point x="487" y="986" type="line"/>
      <point x="578" y="986" type="line"/>
      <point x="578" y="1263" type="line"/>
      <point x="480" y="1263" type="line"/>
      <point x="480" y="1281" type="line" smooth="yes"/>
      <point x="480" y="1332"/>
      <point x="486" y="1362"/>
      <point x="535" y="1362" type="curve" smooth="yes"/>
      <point x="545" y="1362"/>
      <point x="559" y="1360"/>
      <point x="578" y="1357" type="curve"/>
      <point x="578" y="1578" type="line"/>
      <point x="527" y="1597"/>
      <point x="459" y="1607"/>
      <point x="374" y="1607" type="curve" smooth="yes"/>
      <point x="213" y="1607"/>
      <point x="132" y="1526"/>
      <point x="132" y="1365" type="curve" smooth="yes"/>
      <point x="132" y="1263" type="line"/>
      <point x="47" y="1263" type="line"/>
      <point x="47" y="986" type="line"/>
      <point x="132" y="986" type="line"/>
      <point x="139" y="297" type="line"/>
      <point x="139" y="279" type="line" smooth="yes"/>
      <point x="139" y="228"/>
      <point x="133" y="198"/>
      <point x="84" y="198" type="curve" smooth="yes"/>
      <point x="74" y="198"/>
      <point x="60" y="200"/>
      <point x="41" y="203" type="curve"/>
      <point x="41" y="-18" type="line"/>
      <point x="92" y="-37"/>
      <point x="160" y="-47"/>
    </contour>
  </outline>
</glyph>
<glyph name="breve" format="1">
  <advance width="1015"/>
  <unicode hex="02D8"/>
  <outline>
    <contour>
      <point x="501" y="1592" type="curve" smooth="yes"/>
      <point x="741" y="1592"/>
      <point x="896" y="1687"/>
      <point x="896" y="1910" type="curve" smooth="yes"/>
      <point x="896" y="1917"/>
      <point x="895" y="1929"/>
      <point x="894" y="1945" type="curve"/>
      <point x="638" y="1944" type="line"/>
      <point x="638" y="1869"/>
      <point x="606" y="1829"/>
      <point x="503" y="1829" type="curve" smooth="yes"/>
      <point x="400" y="1829"/>
      <point x="368" y="1869"/>
      <point x="368" y="1944" type="curve"/>
      <point x="112" y="1945" type="line"/>
      <point x="110" y="1931"/>
      <point x="109" y="1917"/>
      <point x="109" y="1903" type="curve" smooth="yes"/>
      <point x="109" y="1686"/>
      <point x="267" y="1592"/>
    </contour>
    <contour>
      <point x="498" y="1500" type="move" name="_top"/>
    </contour>
  </outline>
</glyph>
<glyph name="ogonek" format="1">
  <advance width="1015"/>
  <unicode hex="02DB"/>
  <outline>
    <contour>
      <point x="654" y="-631" type="curve" smooth="yes"/>
      <point x="722" y="-631"/>
      <point x="788" y="-618"/>
      <point x="852" y="-591" type="curve"/>
      <point x="852" y="-368" type="line"/>
      <point x="808" y="-383"/>
      <point x="769.333" y="-391"/>
      <point x="736" y="-391" type="curve" smooth="yes"/>
      <point x="662.915" y="-391"/>
      <point x="621" y="-354"/>
      <point x="621" y="-279" type="curve" smooth="yes"/>
      <point x="621" y="-169"/>
      <point x="706.889" y="-90"/>
      <point x="781" y="0" type="curve"/>
      <point x="570" y="0" type="line"/>
      <point x="394" y="-99"/>
      <point x="306" y="-209"/>
      <point x="306" y="-330" type="curve" smooth="yes"/>
      <point x="306" y="-519"/>
      <point x="463.943" y="-631"/>
    </contour>
    <contour>
      <point x="669" y="0" type="move" name="_ogonek"/>
    </contour>
  </outline>
</glyph>
<glyph name="tilde" format="1">
  <advance width="1015"/>
  <unicode hex="02DC"/>
  <outline>
    <contour>
      <point x="667" y="1611" type="curve" smooth="yes"/>
      <point x="817" y="1611"/>
      <point x="866" y="1737"/>
      <point x="915" y="1872" type="curve"/>
      <point x="749" y="1926" type="line"/>
      <point x="722" y="1871"/>
      <point x="692" y="1851"/>
      <point x="656" y="1851" type="curve" smooth="yes"/>
      <point x="580" y="1851"/>
      <point x="478" y="1935"/>
      <point x="336" y="1935" type="curve" smooth="yes"/>
      <point x="193" y="1935"/>
      <point x="138" y="1833"/>
      <point x="89" y="1712" type="curve"/>
      <point x="237" y="1634" type="line"/>
      <point x="263" y="1685"/>
      <point x="294" y="1702"/>
      <point x="329" y="1702" type="curve" smooth="yes"/>
      <point x="410" y="1702"/>
      <point x="518" y="1611"/>
    </contour>
    <contour>
      <point x="494" y="1500" type="move" name="_top"/>
    </contour>
  </outline>
</glyph>
<glyph name="commaturnedabovecomb" format="1">
  <advance width="600"/>
  <unicode hex="0312"/>
  <outline>
    <contour>
      <point x="126" y="1725" type="line"/>
      <point x="500" y="1725" type="line"/>
      <point x="500" y="2023" type="line"/>
      <point x="373" y="2023" type="line"/>
      <point x="439" y="2259" type="line"/>
      <point x="228" y="2259" type="line"/>
      <point x="126" y="2014" type="line"/>
    </contour>
    <contour>
      <point x="309" y="1500" type="move" name="_top"/>
    </contour>
  </outline>
</glyph>
<glyph name="commaaccent" format="1">
  <advance width="600"/>
  <unicode hex="0326"/>
  <outline>
    <contour>
      <point x="176" y="-643" type="line"/>
      <point x="387" y="-643" type="line"/>
      <point x="489" y="-398" type="line"/>
      <point x="489" y="-109" type="line"/>
      <point x="115" y="-109" type="line"/>
      <point x="115" y="-407" type="line"/>
      <point x="242" y="-407" type="line"/>
    </contour>
    <contour>
      <point x="314" y="0" type="move" name="_bot"/>
    </contour>
  </outline>
</glyph>
<glyph name="quotedblleft" format="1">
  <advance width="950"/>
  <unicode hex="201C"/>
  <outline>
    <contour>
      <point x="54" y="1226" type="line"/>
      <point x="428" y="1226" type="line"/>
      <point x="428" y="1524" type="line"/>
      <point x="301" y="1524" type="line"/>
      <point x="367" y="1760" type="line"/>
      <point x="156" y="1760" type="line"/>
      <point x="54" y="1515" type="line"/>
    </contour>
    <contour>
      <point x="523" y="1226" type="line"/>
      <point x="897" y="1226" type="line"/>
      <point x="897" y="1524" type="line"/>
      <point x="770" y="1524" type="line"/>
      <point x="836" y="1760" type="line"/>
      <point x="625" y="1760" type="line"/>
      <point x="523" y="1515" type="line"/>
    </contour>
  </outline>
</glyph>
<glyph name="Euro" format="1">
  <advance width="1075"/>
  <unicode hex="20AC"/>
  <outline>
    <contour>
      <point x="606" y="-16" type="curve" smooth="yes"/>
      <point x="889" y="-16"/>
      <point x="1040" y="188"/>
      <point x="1042" y="477" type="curve"/>
      <point x="693" y="471" type="line"/>
      <point x="693" y="449" type="line" smooth="yes"/>
      <point x="693" y="388"/>
      <point x="660" y="332"/>
      <point x="606" y="332" type="curve" smooth="yes"/>
      <point x="552" y="332"/>
      <point x="519" y="388"/>
      <point x="519" y="449" type="curve" smooth="yes"/>
      <point x="519" y="651" type="line"/>
      <point x="834" y="651" type="line"/>
      <point x="834" y="833" type="line"/>
      <point x="519" y="833" type="line"/>
      <point x="519" y="984" type="line"/>
      <point x="834" y="984" type="line"/>
      <point x="834" y="1168" type="line"/>
      <point x="519" y="1168" type="line"/>
      <point x="519" y="1320" type="line" smooth="yes"/>
      <point x="519" y="1400"/>
      <point x="526" y="1471"/>
      <point x="606" y="1471" type="curve" smooth="yes"/>
      <point x="686" y="1471"/>
      <point x="693" y="1400"/>
      <point x="693" y="1320" type="curve" smooth="yes"/>
      <point x="693" y="1293" type="line"/>
      <point x="1042" y="1292" type="line"/>
      <point x="1037" y="1596"/>
      <point x="904" y="1776"/>
      <point x="606" y="1776" type="curve" smooth="yes"/>
      <point x="292" y="1776"/>
      <point x="140" y="1599"/>
      <point x="140" y="1278" type="curve" smooth="yes"/>
      <point x="140" y="1168" type="line"/>
      <point x="40" y="1168" type="line"/>
      <point x="40" y="984" type="line"/>
      <point x="140" y="984" type="line"/>
      <point x="140" y="833" type="line"/>
      <point x="40" y="833" type="line"/>
      <point x="40" y="651" type="line"/>
      <point x="140" y="651" type="line"/>
      <point x="140" y="484" type="line" smooth="yes"/>
      <point x="140" y="181"/>
      <point x="308" y="-16"/>
    </contour>
  </outline>
</glyph>
<glyph name="uni2219" format="1">
  <advance width="600"/>
  <unicode hex="2219"/>
  <outline>
    <contour>
      <point x="151" y="723" type="line"/>
      <point x="469" y="723" type="line"/>
      <point x="469" y="1021" type="line"/>
      <point x="151" y="1021" type="line"/>
    </contour>
  </outline>
</glyph>
